<svg width="69" height="98" viewBox="0 0 69 98" fill="none" xmlns="http://www.w3.org/2000/svg">
<path d="M32.5238 28.8655L18.0503 36.8884L32.0196 43.6472L45.3469 36.2597L32.5238 28.8655Z" fill="#3948B9"/>
<path d="M68.4111 45.8227L35.1488 63.0001V45.0035L52.2337 35.5094L68.4111 45.8227Z" fill="#3948B9"/>
<path d="M0.952637 6.90089L13.5 0L67 30.5L68.4096 45.9085L0.952637 6.90089Z" fill="#695CFF"/>
<path d="M31.835 79.8859L20.6087 86.1087L17.8809 87.6209L18.0503 36.8882L32.0196 43.6471L31.835 79.8859Z" fill="#695CFF"/>
<path d="M16.4715 19.4575L0 28.6502L14.6386 35.4512L29.5934 27.1615L16.4715 19.4575Z" fill="#3948B9"/>
<path d="M14.6074 89.4354L0.0584361 97.5L0 85.2076L0 28.6501L14.6386 35.4511L14.6074 89.4354Z" fill="#695CFF"/>
</svg>
