<svg width="276" height="137" viewBox="0 0 276 137" fill="none" xmlns="http://www.w3.org/2000/svg">
<path d="M136.524 28.8655L122.05 36.8884L136.02 43.6472L149.347 36.2597L136.524 28.8655Z" fill="#3948B9"/>
<path d="M172.411 45.8227L139.149 63.0001V45.0035L156.234 35.5094L172.411 45.8227Z" fill="#3948B9"/>
<path d="M104.953 6.90089L117.5 0L171 30.5L172.41 45.9085L104.953 6.90089Z" fill="#695CFF"/>
<path d="M135.835 79.8859L124.609 86.1087L121.881 87.6209L122.05 36.8882L136.02 43.6471L135.835 79.8859Z" fill="#695CFF"/>
<path d="M120.472 19.4575L104 28.6502L118.639 35.4512L133.593 27.1615L120.472 19.4575Z" fill="#3948B9"/>
<path d="M118.607 89.4354L104.058 97.5L104 85.2076V28.6501L118.639 35.4511L118.607 89.4354Z" fill="#695CFF"/>
<path d="M84.639 118V107.008H89.103C91.375 107.008 93.151 108.464 93.151 110.528C93.151 112.592 91.375 114.048 89.103 114.048H85.887V118H84.639ZM85.887 112.864H88.879C90.671 112.864 91.887 112 91.887 110.528C91.887 109.056 90.671 108.192 88.879 108.192H85.887V112.864ZM103.448 110.528C103.448 112.256 102.2 113.568 100.456 113.936L103.304 118H101.88L99.0959 114.048H96.1839V118H94.9359V107.008H99.3999C101.672 107.008 103.448 108.464 103.448 110.528ZM96.1839 108.192V112.864H99.1759C100.968 112.864 102.184 112 102.184 110.528C102.184 109.056 100.968 108.192 99.1759 108.192H96.1839ZM114.286 118L113.182 115.504H107.054L105.95 118H104.59L109.438 107.008H110.798L115.646 118H114.286ZM107.566 114.32H112.67L110.126 108.544L107.566 114.32ZM122.195 113.392V112.208H126.595V116.512C125.571 117.536 123.843 118.192 122.323 118.192C119.283 118.192 116.691 115.584 116.691 112.496C116.691 109.408 119.283 106.816 122.323 106.816C123.843 106.816 125.571 107.456 126.595 108.496L125.747 109.36C124.947 108.512 123.523 107.968 122.323 107.968C119.955 107.968 117.955 110.048 117.955 112.496C117.955 114.96 119.955 117.04 122.323 117.04C123.347 117.04 124.531 116.64 125.347 116.016V113.392H122.195ZM137.989 118L136.885 115.504H130.757L129.653 118H128.293L133.141 107.008H134.501L139.349 118H137.989ZM131.269 114.32H136.373L133.829 108.544L131.269 114.32ZM143.291 118V108.192H139.595V107.008H148.235V108.192H144.539V118H143.291ZM150.217 118V107.008H151.465V118H150.217ZM163.839 118.192C160.799 118.192 158.207 115.584 158.207 112.496C158.207 109.408 160.799 106.816 163.839 106.816C166.895 106.816 169.455 109.408 169.455 112.496C169.455 115.584 166.895 118.192 163.839 118.192ZM163.839 117.04C166.207 117.04 168.191 114.96 168.191 112.496C168.191 110.048 166.207 107.968 163.839 107.968C161.471 107.968 159.471 110.048 159.471 112.496C159.471 114.96 161.471 117.04 163.839 117.04ZM171.785 118V107.008H173.033L179.849 115.952V107.008H181.097V118H179.849L173.033 109.056V118H171.785ZM191.746 108.192H185.122V111.808H191.09V112.992H185.122V116.816H191.746V118H183.858V107.008H191.746V108.192Z" fill="#695CFF"/>
</svg>
